# xmcd CD database file
#
# Track frame offsets:
#	150
#	17102
#	36900
#	52920
#	73975
#	86342
#	103262
#	120054
#	133387
#	150927
#	173270
#	186677
#	202352
#	223984
#	244532
#	263000
#	281615
#	294442
#	310615
#
# Disc length: 4372 seconds
#
# Revision: 4
# Processed by: cddbd v1.5.2PL0 Copyright (c) Steve Scherf et al.
# Submitted via: CDex 1.51
#
DISCID=15111213
DTITLE=Paul Weller - Days Of Speed
DYEAR=2001
DGENRE=Rock
TTITLE0=Brand New Start
TTITLE1=The Loved
TTITLE2=Out Of Sinking
TTITLE3=Clues
TTITLE4=English Rose
TTITLE5=Above The Clouds
TTITLE6=You Do Something To Me
TTITLE7=Amongst Butterflies
TTITLE8=Science
TTITLE9=Back In The Fire
TTITLE10=Down In The Seine
TTITLE11=That's Entertainment
TTITLE12=Love-Less
TTITLE13=There's No Drinking After You're Dead
TTITLE14=Everything Has A Price To Pay
TTITLE15=Wild Wood
TTITLE16=Headstart For Happiness
TTITLE17=Town Called Malice
TTITLE18=The Butterfly Collector
EXTD=YEAR: 2001
EXTT0=
EXTT1=
EXTT2=
EXTT3=
EXTT4=
EXTT5=
EXTT6=
EXTT7=
EXTT8=
EXTT9=
EXTT10=
EXTT11=
EXTT12=
EXTT13=
EXTT14=
EXTT15=
EXTT16=
EXTT17=
EXTT18=
PLAYORDER=
